<svg xmlns="http://www.w3.org/2000/svg" xmlns:xlink="http://www.w3.org/1999/xlink" width="479" zoomAndPan="magnify" viewBox="0 0 359.25 405.749988" height="541" preserveAspectRatio="xMidYMid meet" version="1.0"><defs><g/><clipPath id="f50792cec5"><path d="M 79.949219 144.269531 L 261.039062 144.269531 L 261.039062 179.847656 L 79.949219 179.847656 Z M 79.949219 144.269531 " clip-rule="nonzero"/></clipPath><clipPath id="8bd05cd44b"><path d="M 0.949219 0.269531 L 182.039062 0.269531 L 182.039062 35.847656 L 0.949219 35.847656 Z M 0.949219 0.269531 " clip-rule="nonzero"/></clipPath><clipPath id="aa3439fc28"><rect x="0" width="183" y="0" height="36"/></clipPath><clipPath id="18401634b1"><path d="M 145.753906 156.242188 L 273.015625 156.242188 L 273.015625 191.820312 L 145.753906 191.820312 Z M 145.753906 156.242188 " clip-rule="nonzero"/></clipPath><clipPath id="3774293326"><path d="M 0.753906 0.242188 L 128.015625 0.242188 L 128.015625 35.820312 L 0.753906 35.820312 Z M 0.753906 0.242188 " clip-rule="nonzero"/></clipPath><clipPath id="d6ed2910de"><rect x="0" width="129" y="0" height="36"/></clipPath><clipPath id="8ac8aabe13"><path d="M 223.90625 179.847656 L 288.921875 179.847656 L 288.921875 242.804688 L 223.90625 242.804688 Z M 223.90625 179.847656 " clip-rule="nonzero"/></clipPath><clipPath id="1b58b61fb5"><path d="M 0.90625 0.847656 L 65.921875 0.847656 L 65.921875 63.804688 L 0.90625 63.804688 Z M 0.90625 0.847656 " clip-rule="nonzero"/></clipPath><clipPath id="b2ded32bb2"><rect x="0" width="66" y="0" height="64"/></clipPath></defs><path fill="#232323" d="M 148.191406 350.578125 L 134.71875 350.578125 L 134.71875 377.523438 L 121.246094 377.523438 L 121.246094 390.996094 L 67.359375 390.996094 L 67.359375 377.523438 L 53.886719 377.523438 L 53.886719 296.691406 L 67.359375 296.691406 L 67.359375 283.21875 L 80.832031 283.21875 L 80.832031 323.636719 L 107.773438 323.636719 L 107.773438 310.164062 L 134.71875 310.164062 L 134.71875 296.691406 L 161.664062 296.691406 L 161.664062 283.21875 L 188.605469 283.21875 L 188.605469 310.164062 L 175.132812 310.164062 L 175.132812 323.636719 L 148.191406 323.636719 Z M 148.191406 350.578125 " fill-opacity="1" fill-rule="nonzero"/><path fill="#232323" d="M 296.382812 202.390625 L 296.382812 175.445312 L 282.910156 175.445312 L 282.910156 148.5 L 269.4375 148.5 L 269.4375 135.03125 L 255.964844 135.03125 L 255.964844 121.558594 L 229.023438 121.558594 L 229.023438 108.085938 L 202.078125 108.085938 L 202.078125 94.613281 L 121.246094 94.613281 L 121.246094 108.085938 L 94.304688 108.085938 L 94.304688 121.558594 L 67.359375 121.558594 L 67.359375 135.03125 L 53.886719 135.03125 L 53.886719 148.5 L 40.414062 148.5 L 40.414062 175.445312 L 26.945312 175.445312 L 26.945312 202.390625 L 13.472656 202.390625 L 13.472656 283.21875 L 26.945312 283.21875 L 26.945312 296.691406 L 40.414062 296.691406 L 40.414062 283.21875 L 53.886719 283.21875 L 53.886719 269.75 L 94.304688 269.75 L 94.304688 296.691406 L 121.246094 296.691406 L 121.246094 283.21875 L 148.191406 283.21875 L 148.191406 269.75 L 134.71875 269.75 L 134.71875 256.277344 L 107.773438 256.277344 L 107.773438 242.804688 L 148.191406 242.804688 L 148.191406 256.277344 L 175.132812 256.277344 L 175.132812 269.75 L 202.078125 269.75 L 202.078125 323.636719 L 188.605469 323.636719 L 188.605469 337.109375 L 161.664062 337.109375 L 161.664062 364.050781 L 148.191406 364.050781 L 148.191406 390.996094 L 202.078125 390.996094 L 202.078125 377.523438 L 229.023438 377.523438 L 229.023438 364.050781 L 255.964844 364.050781 L 255.964844 350.578125 L 269.4375 350.578125 L 269.4375 337.109375 L 282.910156 337.109375 L 282.910156 310.164062 L 296.382812 310.164062 L 296.382812 283.21875 L 309.851562 283.21875 L 309.851562 202.390625 Z M 202.078125 175.445312 L 242.492188 175.445312 L 242.492188 188.917969 L 255.964844 188.917969 L 255.964844 215.859375 L 242.492188 215.859375 L 242.492188 202.390625 L 229.023438 202.390625 L 229.023438 188.917969 L 202.078125 188.917969 Z M 188.605469 202.390625 L 215.550781 202.390625 L 215.550781 229.332031 L 188.605469 229.332031 Z M 134.71875 215.859375 L 107.773438 215.859375 L 107.773438 188.917969 L 134.71875 188.917969 Z M 148.191406 188.917969 L 148.191406 175.445312 L 134.71875 175.445312 L 134.71875 161.972656 L 107.773438 161.972656 L 107.773438 175.445312 L 80.832031 175.445312 L 80.832031 161.972656 L 94.304688 161.972656 L 94.304688 148.5 L 148.191406 148.5 L 148.191406 161.972656 L 161.664062 161.972656 L 161.664062 175.445312 L 175.132812 175.445312 L 175.132812 188.917969 Z M 148.191406 188.917969 " fill-opacity="1" fill-rule="nonzero"/><g clip-path="url(#f50792cec5)"><g transform="matrix(1, 0, 0, 1, 79, 144)"><g clip-path="url(#aa3439fc28)"><g clip-path="url(#8bd05cd44b)"><path fill="#232323" d="M 0.949219 0.269531 L 182.039062 0.269531 L 182.039062 35.847656 L 0.949219 35.847656 Z M 0.949219 0.269531 " fill-opacity="1" fill-rule="nonzero"/></g></g></g></g><g clip-path="url(#18401634b1)"><g transform="matrix(1, 0, 0, 1, 145, 156)"><g clip-path="url(#d6ed2910de)"><g clip-path="url(#3774293326)"><path fill="#232323" d="M 0.753906 0.242188 L 128.0625 0.242188 L 128.0625 35.820312 L 0.753906 35.820312 Z M 0.753906 0.242188 " fill-opacity="1" fill-rule="nonzero"/></g></g></g></g><g clip-path="url(#8ac8aabe13)"><g transform="matrix(1, 0, 0, 1, 223, 179)"><g clip-path="url(#b2ded32bb2)"><g clip-path="url(#1b58b61fb5)"><path fill="#232323" d="M 0.90625 0.847656 L 65.828125 0.847656 L 65.828125 63.804688 L 0.90625 63.804688 Z M 0.90625 0.847656 " fill-opacity="1" fill-rule="nonzero"/></g></g></g></g><g fill="#000000" fill-opacity="1"><g transform="translate(205.749436, 227.595227)"><g><path d="M 72.140625 -28.609375 L 43.328125 -28.609375 L 43.328125 0 L 72.140625 0 Z M 43.328125 -42.90625 L 72.140625 -42.90625 L 72.140625 -68.203125 L 100.953125 -68.203125 L 100.953125 -82.5 L 115.453125 -82.5 L 115.453125 -134.109375 L 100.953125 -134.109375 L 100.953125 -148.40625 L 29.015625 -148.40625 L 29.015625 -134.109375 L 14.515625 -134.109375 L 14.515625 -105.09375 L 43.328125 -105.09375 L 43.328125 -134.109375 L 86.640625 -134.109375 L 86.640625 -82.5 L 57.828125 -82.5 L 57.828125 -68.203125 L 43.328125 -68.203125 Z M 43.328125 -42.90625 "/></g></g></g><g fill="#ffffff" fill-opacity="1"><g transform="translate(205.749436, 227.595227)"><g><path d="M 72.132812 -27.632812 L 43.320312 -27.632812 L 43.320312 -28.605469 L 44.292969 -28.605469 L 44.292969 0 L 43.320312 0 L 43.320312 -0.972656 L 72.132812 -0.972656 L 72.132812 0 L 71.160156 0 L 71.160156 -28.605469 L 72.132812 -28.605469 Z M 73.105469 -29.578125 L 73.105469 0.972656 L 42.351562 0.972656 L 42.351562 -29.578125 Z M 43.320312 -43.878906 L 72.132812 -43.878906 L 72.132812 -42.90625 L 71.160156 -42.90625 L 71.160156 -69.167969 L 100.945312 -69.167969 L 100.945312 -68.195312 L 99.972656 -68.195312 L 99.972656 -83.46875 L 115.453125 -83.46875 L 115.453125 -82.496094 L 114.484375 -82.496094 L 114.484375 -134.109375 L 115.453125 -134.109375 L 115.453125 -133.136719 L 99.972656 -133.136719 L 99.972656 -148.414062 L 100.945312 -148.414062 L 100.945312 -147.441406 L 29.019531 -147.441406 L 29.019531 -148.414062 L 29.992188 -148.414062 L 29.992188 -133.136719 L 14.507812 -133.136719 L 14.507812 -134.109375 L 15.480469 -134.109375 L 15.480469 -105.089844 L 14.507812 -105.089844 L 14.507812 -106.0625 L 43.320312 -106.0625 L 43.320312 -105.089844 L 42.351562 -105.089844 L 42.351562 -135.082031 L 87.613281 -135.082031 L 87.613281 -81.527344 L 57.832031 -81.527344 L 57.832031 -82.496094 L 58.800781 -82.496094 L 58.800781 -67.222656 L 43.320312 -67.222656 L 43.320312 -68.195312 L 44.292969 -68.195312 L 44.292969 -42.90625 L 43.320312 -42.90625 Z M 42.351562 -41.933594 L 42.351562 -69.167969 L 57.832031 -69.167969 L 57.832031 -68.195312 L 56.859375 -68.195312 L 56.859375 -83.46875 L 86.644531 -83.46875 L 86.644531 -82.496094 L 85.671875 -82.496094 L 85.671875 -134.109375 L 86.644531 -134.109375 L 86.644531 -133.136719 L 43.320312 -133.136719 L 43.320312 -134.109375 L 44.292969 -134.109375 L 44.292969 -104.121094 L 13.539062 -104.121094 L 13.539062 -135.082031 L 29.019531 -135.082031 L 29.019531 -134.109375 L 28.046875 -134.109375 L 28.046875 -149.382812 L 101.917969 -149.382812 L 101.917969 -134.109375 L 100.945312 -134.109375 L 100.945312 -135.082031 L 116.425781 -135.082031 L 116.425781 -81.527344 L 100.945312 -81.527344 L 100.945312 -82.496094 L 101.917969 -82.496094 L 101.917969 -67.222656 L 72.132812 -67.222656 L 72.132812 -68.195312 L 73.105469 -68.195312 L 73.105469 -41.933594 Z M 42.351562 -41.933594 "/></g></g></g></svg>
